<?xml version="1.0" encoding="utf-8"?>
<!-- Generator: Adobe Illustrator 24.0.0, SVG Export Plug-In . SVG Version: 6.00 Build 0)  -->
<svg version="1.1" id="Layer_1" xmlns="http://www.w3.org/2000/svg" xmlns:xlink="http://www.w3.org/1999/xlink" x="0px" y="0px"
	 viewBox="0 0 524.1 153.61" style="enable-background:new 0 0 524.1 153.61;" xml:space="preserve">
<style type="text/css">
	.st0{fill:url(#SVGID_1_);}
	.st1{fill:url(#SVGID_2_);}
	.st2{fill:url(#SVGID_3_);}
	.st3{fill:url(#SVGID_4_);}
	.st4{fill:url(#SVGID_5_);}
	.st5{fill:url(#SVGID_6_);}
	.st6{fill:url(#SVGID_7_);}
	.st7{fill:url(#SVGID_8_);}
	.st8{fill:url(#SVGID_9_);}
	.st9{fill:url(#SVGID_10_);}
	.st10{fill:url(#SVGID_11_);}
	.st11{fill:url(#SVGID_12_);}
	.st12{fill:url(#SVGID_13_);}
	.st13{fill:url(#SVGID_14_);}
	.st14{fill:url(#SVGID_15_);}
	.st15{fill:url(#SVGID_16_);}
	.st16{fill:url(#SVGID_17_);}
	.st17{fill:url(#SVGID_18_);}
	.st18{fill:#0C4E91;}
	.st19{fill:#3A9D47;}
</style>
<g>
	<g>
		
			<linearGradient id="SVGID_1_" gradientUnits="userSpaceOnUse" x1="134.6104" y1="5197.9873" x2="134.8342" y2="5211.2651" gradientTransform="matrix(1 0 0 -1 -24.05 5264.5718)">
			<stop  offset="0" style="stop-color:#1DB9EC"/>
			<stop  offset="0.62" style="stop-color:#1274B2"/>
			<stop  offset="1" style="stop-color:#0A4F90"/>
		</linearGradient>
		<path class="st0" d="M106.26,57.8c0,0,4.71-2.65,4.29,1.18c0,0.29-0.09,2.86-4.29,6.7c3.54-1.68,6.47-4.42,8.39-7.83
			c1.6-3.7-0.64-4.38-2.9-3.9C109.59,54.68,107.69,56.02,106.26,57.8z"/>
		
			<linearGradient id="SVGID_2_" gradientUnits="userSpaceOnUse" x1="134.454" y1="5199.6855" x2="132.6515" y2="5208.71" gradientTransform="matrix(1 0 0 -1 -24.05 5264.5718)">
			<stop  offset="0" style="stop-color:#0A4F90"/>
			<stop  offset="0.29" style="stop-color:#075192"/>
			<stop  offset="0.47" style="stop-color:#06599B"/>
			<stop  offset="0.62" style="stop-color:#1168A7"/>
			<stop  offset="0.75" style="stop-color:#197BB7"/>
			<stop  offset="0.87" style="stop-color:#1594CD"/>
			<stop  offset="0.99" style="stop-color:#19B3E7"/>
			<stop  offset="1" style="stop-color:#1DB9EC"/>
		</linearGradient>
		<path class="st1" d="M106.26,57.8c0,0,4.71-2.6,4.3,1.18c0,0.33-0.26,3.04-4.3,6.69c1.96-1.3,3.66-2.95,5.02-4.87
			c1.07-1.53,2.47-3.53,1.46-4.87c-0.93-1.06-2.47-0.53-3.69,0C108.05,56.44,107.11,57.07,106.26,57.8z"/>
		
			<linearGradient id="SVGID_3_" gradientUnits="userSpaceOnUse" x1="982.6024" y1="5197.9873" x2="982.8262" y2="5211.2651" gradientTransform="matrix(-1 0 0 -1 1084.5106 5264.5718)">
			<stop  offset="0" style="stop-color:#1DB9EC"/>
			<stop  offset="0.62" style="stop-color:#1274B2"/>
			<stop  offset="1" style="stop-color:#0A4F90"/>
		</linearGradient>
		<path class="st2" d="M106.21,57.8c0,0-4.71-2.65-4.3,1.18c0,0.29,0.11,2.86,4.3,6.7c-3.54-1.68-6.48-4.42-8.4-7.83
			c-1.6-3.7,0.65-4.38,2.91-3.9C102.88,54.68,104.79,56.02,106.21,57.8z"/>
		
			<linearGradient id="SVGID_4_" gradientUnits="userSpaceOnUse" x1="982.4451" y1="5199.6841" x2="980.6426" y2="5208.7085" gradientTransform="matrix(-1 0 0 -1 1084.5106 5264.5718)">
			<stop  offset="0" style="stop-color:#0A4F90"/>
			<stop  offset="0.29" style="stop-color:#075192"/>
			<stop  offset="0.47" style="stop-color:#06599B"/>
			<stop  offset="0.62" style="stop-color:#1168A7"/>
			<stop  offset="0.75" style="stop-color:#197BB7"/>
			<stop  offset="0.87" style="stop-color:#1594CD"/>
			<stop  offset="0.99" style="stop-color:#19B3E7"/>
			<stop  offset="1" style="stop-color:#1DB9EC"/>
		</linearGradient>
		<path class="st3" d="M106.21,57.8c0,0-4.71-2.6-4.31,1.18c0,0.33,0.27,3.04,4.31,6.69c-1.97-1.29-3.67-2.94-5.03-4.87
			c-1.07-1.53-2.46-3.53-1.46-4.87c0.94-1.06,2.49-0.53,3.69,0C104.41,56.44,105.35,57.07,106.21,57.8z"/>
		
			<linearGradient id="SVGID_5_" gradientUnits="userSpaceOnUse" x1="119.4994" y1="5145.5132" x2="120.3948" y2="5199.4482" gradientTransform="matrix(1 0 0 -1 -24.05 5264.5718)">
			<stop  offset="0" style="stop-color:#1DB9EC"/>
			<stop  offset="0.62" style="stop-color:#1274B2"/>
			<stop  offset="1" style="stop-color:#0A4F90"/>
		</linearGradient>
		<path class="st4" d="M77.97,83.41c0,0,18.97-10.72,17.44,4.94C95.26,89.52,95,100,77.97,115.58c0,0,23.2-10.23,34.07-31.81
			c6.5-14.97-2.6-17.79-11.78-15.79C98.24,68.36,88.07,71.84,77.97,83.41z"/>
		
			<linearGradient id="SVGID_6_" gradientUnits="userSpaceOnUse" x1="118.7884" y1="5152.3887" x2="111.4713" y2="5189.0688" gradientTransform="matrix(1 0 0 -1 -24.05 5264.5718)">
			<stop  offset="0" style="stop-color:#0A4F90"/>
			<stop  offset="0.29" style="stop-color:#075192"/>
			<stop  offset="0.47" style="stop-color:#06599B"/>
			<stop  offset="0.62" style="stop-color:#1168A7"/>
			<stop  offset="0.75" style="stop-color:#197BB7"/>
			<stop  offset="0.87" style="stop-color:#1594CD"/>
			<stop  offset="0.99" style="stop-color:#19B3E7"/>
			<stop  offset="1" style="stop-color:#1DB9EC"/>
		</linearGradient>
		<path class="st5" d="M77.97,83.41c0,0,18.96-10.6,17.47,4.98c-0.15,1.32-1.07,12.34-17.47,27.19c0,0,8.25-4.38,20.39-19.77
			c4.35-6.23,10.01-14.35,5.89-19.76c-3.79-4.29-10.07-2.13-14.96,0.15C85.26,78.17,81.46,80.59,77.97,83.41z"/>
		
			<linearGradient id="SVGID_7_" gradientUnits="userSpaceOnUse" x1="456.031" y1="5146.2656" x2="463.9952" y2="5199.6235" gradientTransform="matrix(-1 0 0 -1 521.0706 5264.5718)">
			<stop  offset="0" style="stop-color:#A2CB39"/>
			<stop  offset="0.59" style="stop-color:#66B145"/>
			<stop  offset="1" style="stop-color:#40A147"/>
		</linearGradient>
		<path class="st6" d="M77.42,83.41c0,0-18.97-10.72-17.44,4.94c0.15,1.18,0.41,11.65,17.44,27.24c0,0-23.21-10.23-34.07-31.81
			c-6.5-14.97,2.6-17.79,11.78-15.79C57.21,68.36,67.32,71.84,77.42,83.41z"/>
		
			<linearGradient id="SVGID_8_" gradientUnits="userSpaceOnUse" x1="459.3165" y1="5153.8643" x2="454.1681" y2="5190.9048" gradientTransform="matrix(-1 0 0 -1 521.0706 5264.5718)">
			<stop  offset="0" style="stop-color:#3C9E47"/>
			<stop  offset="0.3" style="stop-color:#3F9F47"/>
			<stop  offset="0.48" style="stop-color:#48A347"/>
			<stop  offset="0.63" style="stop-color:#57A946"/>
			<stop  offset="0.77" style="stop-color:#69B245"/>
			<stop  offset="0.89" style="stop-color:#83BE41"/>
			<stop  offset="1" style="stop-color:#A1CC3A"/>
			<stop  offset="1" style="stop-color:#A2CB39"/>
		</linearGradient>
		<path class="st7" d="M77.42,83.41c0,0-18.96-10.6-17.48,4.98c0.16,1.32,1.08,12.34,17.48,27.19c0,0-8.25-4.38-20.41-19.77
			c-4.34-6.23-10-14.35-5.89-19.76c3.78-4.29,10.06-2.13,14.96,0.15C70.12,78.18,73.92,80.59,77.42,83.41z"/>
		
			<linearGradient id="SVGID_9_" gradientUnits="userSpaceOnUse" x1="475.3878" y1="5198.1968" x2="477.3317" y2="5211.2622" gradientTransform="matrix(-1 0 0 -1 521.0706 5264.5718)">
			<stop  offset="0" style="stop-color:#A2CB39"/>
			<stop  offset="0.59" style="stop-color:#66B145"/>
			<stop  offset="1" style="stop-color:#40A147"/>
		</linearGradient>
		<path class="st8" d="M48.76,57.82c0,0-4.71-2.62-4.31,1.18c0,0.29,0.11,2.85,4.31,6.66c-3.54-1.66-6.49-4.38-8.42-7.79
			c-1.6-3.66,0.65-4.35,2.92-3.86C45.41,54.73,47.32,56.06,48.76,57.82z"/>
		
			<linearGradient id="SVGID_10_" gradientUnits="userSpaceOnUse" x1="476.1943" y1="5200.0532" x2="474.9337" y2="5209.1011" gradientTransform="matrix(-1 0 0 -1 521.0706 5264.5718)">
			<stop  offset="0" style="stop-color:#3C9E47"/>
			<stop  offset="0.3" style="stop-color:#3F9F47"/>
			<stop  offset="0.48" style="stop-color:#48A347"/>
			<stop  offset="0.63" style="stop-color:#57A946"/>
			<stop  offset="0.77" style="stop-color:#69B245"/>
			<stop  offset="0.89" style="stop-color:#83BE41"/>
			<stop  offset="1" style="stop-color:#A1CC3A"/>
			<stop  offset="1" style="stop-color:#A2CB39"/>
		</linearGradient>
		<path class="st9" d="M48.76,57.82c0,0-4.71-2.58-4.32,1.18c0,0.32,0.27,3.02,4.32,6.64c-1.96-1.29-3.67-2.92-5.04-4.83
			c-1.07-1.53-2.47-3.53-1.46-4.83c0.93-1.05,2.49-0.53,3.7,0C46.95,56.49,47.89,57.11,48.76,57.82z"/>
		
			<linearGradient id="SVGID_11_" gradientUnits="userSpaceOnUse" x1="281.1786" y1="5198.186" x2="283.1342" y2="5211.2515" gradientTransform="matrix(1 0 0 -1 -229.36 5264.5718)">
			<stop  offset="0" style="stop-color:#A2CB39"/>
			<stop  offset="0.59" style="stop-color:#66B145"/>
			<stop  offset="1" style="stop-color:#40A147"/>
		</linearGradient>
		<path class="st10" d="M48.76,57.82c0,0,4.71-2.62,4.31,1.18c0,0.29-0.11,2.85-4.31,6.66c3.54-1.66,6.49-4.38,8.42-7.79
			c1.6-3.66-0.65-4.35-2.91-3.86C52.11,54.73,50.2,56.05,48.76,57.82z"/>
		
			<linearGradient id="SVGID_12_" gradientUnits="userSpaceOnUse" x1="281.9935" y1="5200.0645" x2="280.7328" y2="5209.1123" gradientTransform="matrix(1 0 0 -1 -229.36 5264.5718)">
			<stop  offset="0" style="stop-color:#3C9E47"/>
			<stop  offset="0.3" style="stop-color:#3F9F47"/>
			<stop  offset="0.48" style="stop-color:#48A347"/>
			<stop  offset="0.63" style="stop-color:#57A946"/>
			<stop  offset="0.77" style="stop-color:#69B245"/>
			<stop  offset="0.89" style="stop-color:#83BE41"/>
			<stop  offset="1" style="stop-color:#A1CC3A"/>
			<stop  offset="1" style="stop-color:#A2CB39"/>
		</linearGradient>
		<path class="st11" d="M48.76,57.82c0,0,4.71-2.58,4.32,1.18c0,0.32-0.27,3.02-4.32,6.64c1.96-1.29,3.67-2.92,5.04-4.83
			c1.07-1.53,2.47-3.53,1.46-4.83c-0.93-1.05-2.49-0.53-3.7,0C50.56,56.49,49.62,57.11,48.76,57.82z"/>
		
			<linearGradient id="SVGID_13_" gradientUnits="userSpaceOnUse" x1="75.1385" y1="5250.4058" x2="175.115" y2="5169.8564" gradientTransform="matrix(1 0 0 -1 -24.05 5264.5718)">
			<stop  offset="0" style="stop-color:#A2CB39"/>
			<stop  offset="0.08" style="stop-color:#97C63E"/>
			<stop  offset="0.36" style="stop-color:#6FB444"/>
			<stop  offset="0.62" style="stop-color:#56A646"/>
			<stop  offset="0.84" style="stop-color:#419F47"/>
			<stop  offset="1" style="stop-color:#3D9C46"/>
		</linearGradient>
		<path class="st12" d="M62.89,17.1c9.43-2.93,19.44-3.42,29.11-1.44c34.79,6.73,57.53,40.4,50.8,75.19
			c-0.63,3.28-1.52,6.5-2.66,9.64c-1.34,3.46-2.87,6.84-4.59,10.12c0.51-2.64,1.41-5.18,1.94-7.82c2.77-12.63,2.19-26.27-3.16-38.18
			c-3.79-8.41-9.78-16.08-17.86-20.79c-8.91-5.35-19.66-6.92-29.91-5.89c-8.35,1.37-17.2,1.66-25.41-0.81
			c-1.94-0.99-5.47-1.45-4.9-4.35c3.2-1.15,6.65-1.44,10-0.85c2.33,0.48,4.72,0.55,7.07,0.2c1.17-1.09,1.23-2.93,0.14-4.1
			c-0.12-0.13-0.26-0.25-0.4-0.36c-3.81-2.97-9.19-2.21-13.5-0.84c-7.47,2.63-14.96,5.22-22.38,7.83c-3.05,1.07-6.34,1.94-9.58,1.27
			c-1.64-0.44-3.33-2.45-1.94-4.01c3.46-1.83,7.05-3.39,10.76-4.65C45.21,23.85,54.03,20.46,62.89,17.1z"/>
		
			<linearGradient id="SVGID_14_" gradientUnits="userSpaceOnUse" x1="62.8489" y1="5235.1436" x2="162.8253" y2="5154.5947" gradientTransform="matrix(1 0 0 -1 -24.05 5264.5718)">
			<stop  offset="0" style="stop-color:#A2CB39"/>
			<stop  offset="0.08" style="stop-color:#97C63E"/>
			<stop  offset="0.36" style="stop-color:#6FB444"/>
			<stop  offset="0.62" style="stop-color:#56A646"/>
			<stop  offset="0.84" style="stop-color:#419F47"/>
			<stop  offset="1" style="stop-color:#3D9C46"/>
		</linearGradient>
		<path class="st13" d="M47.22,32.67c2.1-0.86,4.28-1.53,6.5-2c-2.57,3.92-5.57,7.56-8.36,11.33c-1.08,1.81-3.63,0.99-4.71-0.4
			c-0.64-2.05,1.31-3.53,2.36-5.03C44.28,35.16,45.22,33.1,47.22,32.67z"/>
		
			<linearGradient id="SVGID_15_" gradientUnits="userSpaceOnUse" x1="57.9772" y1="5229.104" x2="157.9536" y2="5148.5435" gradientTransform="matrix(1 0 0 -1 -24.05 5264.5718)">
			<stop  offset="0" style="stop-color:#A2CB39"/>
			<stop  offset="0.08" style="stop-color:#97C63E"/>
			<stop  offset="0.36" style="stop-color:#6FB444"/>
			<stop  offset="0.62" style="stop-color:#56A646"/>
			<stop  offset="0.84" style="stop-color:#419F47"/>
			<stop  offset="1" style="stop-color:#3D9C46"/>
		</linearGradient>
		<path class="st14" d="M32.5,37.37c3.08-0.64,6.1-1.55,9.02-2.71c-1.7,2.2-3.45,4.38-5.31,6.46c-1.11,1.07-2.87,1.03-3.93-0.07
			c-0.08-0.08-0.16-0.17-0.23-0.27C31.08,39.75,31.71,38.27,32.5,37.37z"/>
		
			<linearGradient id="SVGID_16_" gradientUnits="userSpaceOnUse" x1="33.1566" y1="5209.29" x2="156.9902" y2="5129.3652" gradientTransform="matrix(1 0 0 -1 -24.05 5264.5718)">
			<stop  offset="0" style="stop-color:#0A4F90"/>
			<stop  offset="0.19" style="stop-color:#075394"/>
			<stop  offset="0.38" style="stop-color:#0A5EA1"/>
			<stop  offset="0.57" style="stop-color:#1371B0"/>
			<stop  offset="0.76" style="stop-color:#1B8AC4"/>
			<stop  offset="0.94" style="stop-color:#18ABE0"/>
			<stop  offset="1" style="stop-color:#1DB9EC"/>
		</linearGradient>
		<path class="st15" d="M112.37,116.17c0.75-0.84,1.4-2.21,2.73-2.13c1.91-0.13,4.02,1.96,2.78,3.81c-1.48,2.13-3.08,4.17-4.78,6.13
			c-2.86,1.22-5.79,2.26-8.78,3.1C106.85,123.32,109.74,119.84,112.37,116.17z"/>
		
			<linearGradient id="SVGID_17_" gradientUnits="userSpaceOnUse" x1="37.0934" y1="5215.3901" x2="160.9271" y2="5135.4653" gradientTransform="matrix(1 0 0 -1 -24.05 5264.5718)">
			<stop  offset="0" style="stop-color:#0A4F90"/>
			<stop  offset="0.19" style="stop-color:#075394"/>
			<stop  offset="0.38" style="stop-color:#0A5EA1"/>
			<stop  offset="0.57" style="stop-color:#1371B0"/>
			<stop  offset="0.76" style="stop-color:#1B8AC4"/>
			<stop  offset="0.94" style="stop-color:#18ABE0"/>
			<stop  offset="1" style="stop-color:#1DB9EC"/>
		</linearGradient>
		<path class="st16" d="M122.45,115.96c1.47-1.7,4.44-0.34,4.84,1.64c0.06,1.24-0.81,2.33-2.03,2.56c-2.84,0.57-5.48,1.77-8.25,2.44
			C118.7,120.31,120.52,118.08,122.45,115.96z"/>
		
			<linearGradient id="SVGID_18_" gradientUnits="userSpaceOnUse" x1="24.6408" y1="5196.1035" x2="148.4745" y2="5116.1787" gradientTransform="matrix(1 0 0 -1 -24.05 5264.5718)">
			<stop  offset="0" style="stop-color:#0A4F90"/>
			<stop  offset="0.19" style="stop-color:#075394"/>
			<stop  offset="0.38" style="stop-color:#0A5EA1"/>
			<stop  offset="0.57" style="stop-color:#1371B0"/>
			<stop  offset="0.76" style="stop-color:#1B8AC4"/>
			<stop  offset="0.94" style="stop-color:#18ABE0"/>
			<stop  offset="1" style="stop-color:#1DB9EC"/>
		</linearGradient>
		<path class="st17" d="M133.65,124.57c-1.02,1.18-2.36,2.06-3.85,2.51c-9.85,4.06-19.85,7.73-29.78,11.58
			c-4.23,1.86-8.72,3.05-13.31,3.53c-13.59,1.8-27.39-0.9-39.3-7.68c-30.83-17.2-41.88-56.14-24.68-86.97
			c0.11-0.19,0.22-0.38,0.33-0.58c-3.75,12.28-4.92,25.61-1.46,38.1c3.04,10.98,9.59,21.32,19.33,27.58
			c7.83,5.1,17.37,7.2,26.68,6.99c4.24-0.09,8.39-1.18,12.65-1.18c3.05-0.13,6.1-0.07,9.14,0.18c3.31,0.02,6.59,0.69,9.64,1.99
			c1.58,0.75,3.62,1.47,3.98,3.43c-3.98,2.36-8.87,1.8-13.23,1.06c-1.79-0.2-4.3-0.46-5.28,1.43c-0.58,2.36,1.98,3.89,3.89,4.48
			c3.94,0.84,8.05,0.48,11.78-1.05c7.23-2.64,14.55-5.14,21.88-7.68c2.76-1.1,5.74-1.51,8.69-1.18
			C132.3,121.45,134.05,122.83,133.65,124.57z"/>
	</g>
	<path class="st18" d="M238.69,27.38c-17.69-17.16-45.82-17.16-63.51,0c-8.54,8.21-13.25,19.62-12.99,31.47v42.05h16.97V58.99
		c-0.08-7.36,2.88-14.43,8.18-19.54c5.21-5.22,12.31-8.1,19.68-7.99c7.32-0.04,14.34,2.92,19.42,8.18
		c5.3,5.05,8.26,12.07,8.18,19.39v41.86h16.97V58.85C251.91,47.01,247.22,35.59,238.69,27.38z"/>
	<path class="st18" d="M332.59,26.98c-17.1-16.7-44.4-16.7-61.5,0c-8.3,7.98-12.88,19.07-12.63,30.58
		c-0.29,11.57,4.25,22.74,12.53,30.82c8.1,8.28,19.29,12.81,30.87,12.51c11.54,0.27,22.66-4.3,30.68-12.6
		c8.28-8.05,12.83-19.18,12.56-30.73C345.36,46.07,340.83,34.98,332.59,26.98z M320.83,76.57c-4.95,5.16-11.82,8.03-18.97,7.9
		c-14.83,0.01-26.88-11.99-26.92-26.82c-0.1-7.14,2.78-14,7.95-18.92c10.48-10.42,27.4-10.42,37.88,0
		c5.12,4.92,7.98,11.73,7.9,18.82C328.76,64.7,325.93,71.57,320.83,76.57z"/>
	<path class="st18" d="M401.83,14.47l-20.04,46.95L361.7,14.47h-21.77l41.62,86.41l41.14-86.41L401.83,14.47z"/>
	<path class="st18" d="M490.8,14.66v12c-1.61-1.57-3.33-3.02-5.16-4.32c-7.22-5.14-15.88-7.88-24.75-7.82
		c-5.08,0.06-10.12,0.99-14.88,2.76c-17.1,6.1-28.49,22.33-28.39,40.49c-0.26,11.45,4.26,22.49,12.48,30.46
		c7.97,8.29,19.06,12.85,30.55,12.58c11.26,0.34,22.15-4,30.07-12v12h16.68V14.66H490.8z M479.68,76.56
		c-4.99,5.06-11.83,7.87-18.94,7.78c-5.42-0.02-10.7-1.69-15.15-4.8c-7.39-4.8-11.73-13.11-11.47-21.91c0-5.48,1.68-10.83,4.8-15.34
		c4.75-7.38,13.04-11.71,21.82-11.38c5.49-0.05,10.86,1.63,15.34,4.8c7.42,4.84,11.77,13.2,11.47,22.06
		C487.63,64.85,484.78,71.65,479.68,76.56z"/>
	<g>
		<path class="st19" d="M178.47,130.39h-11.36v11.96h-4.9v-28.22h17.93v3.95h-13.03v8.39h11.36V130.39z"/>
		<path class="st19" d="M218.45,128.98c0,2.77-0.48,5.19-1.43,7.28c-0.96,2.09-2.32,3.69-4.1,4.81c-1.78,1.12-3.82,1.68-6.14,1.68
			c-2.29,0-4.33-0.56-6.12-1.68c-1.79-1.12-3.17-2.71-4.15-4.78c-0.98-2.07-1.47-4.45-1.48-7.15v-1.59c0-2.75,0.49-5.18,1.46-7.29
			c0.98-2.11,2.35-3.72,4.13-4.84c1.78-1.12,3.82-1.68,6.12-1.68c2.3,0,4.34,0.55,6.12,1.66c1.78,1.1,3.15,2.69,4.12,4.77
			c0.97,2.07,1.46,4.49,1.47,7.24V128.98z M213.54,127.5c0-3.13-0.59-5.52-1.77-7.19c-1.18-1.67-2.86-2.5-5.03-2.5
			c-2.12,0-3.78,0.83-4.97,2.49c-1.2,1.66-1.81,4.01-1.83,7.05v1.63c0,3.1,0.6,5.5,1.81,7.19c1.21,1.69,2.88,2.54,5.03,2.54
			c2.17,0,3.84-0.83,5.01-2.48c1.17-1.65,1.75-4.07,1.75-7.25V127.5z"/>
		<path class="st19" d="M255.89,114.13v18.86c0,3-0.96,5.37-2.88,7.12c-1.92,1.75-4.47,2.63-7.67,2.63c-3.23,0-5.8-0.86-7.7-2.59
			s-2.85-4.12-2.85-7.18v-18.84h4.88v18.88c0,1.89,0.48,3.33,1.43,4.32c0.96,1,2.36,1.49,4.23,1.49c3.77,0,5.66-1.99,5.66-5.97
			v-18.73H255.89z"/>
		<path class="st19" d="M295.42,142.35h-4.9l-12.58-20.03v20.03h-4.9v-28.22h4.9l12.62,20.1v-20.1h4.87V142.35z"/>
		<path class="st19" d="M313.13,142.35v-28.22h8.34c2.49,0,4.71,0.56,6.64,1.67c1.93,1.11,3.43,2.69,4.49,4.73
			c1.06,2.04,1.59,4.38,1.59,7.02v1.42c0,2.67-0.53,5.03-1.6,7.06c-1.07,2.03-2.58,3.59-4.56,4.69c-1.97,1.1-4.23,1.65-6.77,1.65
			H313.13z M318.03,118.08v20.35h3.2c2.57,0,4.55-0.8,5.92-2.41c1.38-1.61,2.08-3.92,2.1-6.93v-1.57c0-3.06-0.67-5.4-2-7.02
			c-1.33-1.61-3.26-2.42-5.8-2.42H318.03z"/>
		<path class="st19" d="M366.37,135.78h-10.93l-2.29,6.57h-5.1l10.66-28.22h4.4l10.68,28.22h-5.12L366.37,135.78z M356.81,131.83
			h8.18l-4.09-11.71L356.81,131.83z"/>
		<path class="st19" d="M406.97,118.08h-8.8v24.27h-4.87v-24.27h-8.72v-3.95h22.39V118.08z"/>
		<path class="st19" d="M427.76,142.35h-4.89v-28.22h4.89V142.35z"/>
		<path class="st19" d="M468.22,128.98c0,2.77-0.48,5.19-1.43,7.28c-0.96,2.09-2.32,3.69-4.1,4.81c-1.78,1.12-3.82,1.68-6.14,1.68
			c-2.29,0-4.33-0.56-6.12-1.68c-1.79-1.12-3.17-2.71-4.15-4.78c-0.98-2.07-1.47-4.45-1.48-7.15v-1.59c0-2.75,0.49-5.18,1.46-7.29
			c0.98-2.11,2.35-3.72,4.13-4.84c1.78-1.12,3.82-1.68,6.12-1.68s4.34,0.55,6.12,1.66s3.15,2.69,4.12,4.77
			c0.97,2.07,1.46,4.49,1.47,7.24V128.98z M463.32,127.5c0-3.13-0.59-5.52-1.77-7.19c-1.18-1.67-2.86-2.5-5.03-2.5
			c-2.12,0-3.78,0.83-4.97,2.49c-1.2,1.66-1.81,4.01-1.83,7.05v1.63c0,3.1,0.6,5.5,1.81,7.19c1.21,1.69,2.88,2.54,5.03,2.54
			c2.17,0,3.84-0.83,5.01-2.48c1.17-1.65,1.75-4.07,1.75-7.25V127.5z"/>
		<path class="st19" d="M507.4,142.35h-4.9l-12.58-20.03v20.03h-4.9v-28.22h4.9l12.62,20.1v-20.1h4.87V142.35z"/>
	</g>
</g>
</svg>
